<mxfile host="app.diagrams.net" agent="Mozilla/5.0 (Windows NT 10.0; Win64; x64) AppleWebKit/537.36 (KHTML, like Gecko) Chrome/140.0.0.0 Safari/537.36 Edg/140.0.0.0" version="28.2.5">
  <diagram name="第 1 页" id="eMBxJFtNx6BJp_PkBfgH">
    <mxGraphModel dx="1051" dy="730" grid="1" gridSize="10" guides="1" tooltips="1" connect="1" arrows="1" fold="1" page="1" pageScale="1" pageWidth="827" pageHeight="1169" math="0" shadow="0">
      <root>
        <mxCell id="0" />
        <mxCell id="1" parent="0" />
        <mxCell id="7t4Ecdm951KzAX5EodYJ-1" value="" style="rounded=1;whiteSpace=wrap;html=1;fillColor=#dae8fc;strokeColor=#6c8ebf;" vertex="1" parent="1">
          <mxGeometry x="150" y="290" width="500" height="260" as="geometry" />
        </mxCell>
        <mxCell id="7t4Ecdm951KzAX5EodYJ-2" value="" style="rounded=1;whiteSpace=wrap;html=1;fillColor=#1ba1e2;strokeColor=#006EAF;fontColor=#ffffff;" vertex="1" parent="1">
          <mxGeometry x="180" y="330" width="180" height="190" as="geometry" />
        </mxCell>
        <mxCell id="7t4Ecdm951KzAX5EodYJ-3" value="&lt;font style=&quot;font-size: 17px;&quot;&gt;老年代&lt;/font&gt;" style="rounded=1;whiteSpace=wrap;html=1;fillColor=#ffcc99;strokeColor=#36393d;" vertex="1" parent="1">
          <mxGeometry x="410" y="330" width="194" height="180" as="geometry" />
        </mxCell>
        <mxCell id="7t4Ecdm951KzAX5EodYJ-4" value="" style="rounded=0;whiteSpace=wrap;html=1;fillColor=#ffff88;strokeColor=#36393d;" vertex="1" parent="1">
          <mxGeometry x="200" y="350" width="140" height="60" as="geometry" />
        </mxCell>
        <mxCell id="7t4Ecdm951KzAX5EodYJ-5" value="&lt;font style=&quot;font-size: 18px;&quot;&gt;Eden&lt;/font&gt;" style="text;html=1;align=center;verticalAlign=middle;whiteSpace=wrap;rounded=0;" vertex="1" parent="1">
          <mxGeometry x="240" y="365" width="60" height="30" as="geometry" />
        </mxCell>
        <mxCell id="7t4Ecdm951KzAX5EodYJ-6" value="" style="rounded=0;whiteSpace=wrap;html=1;fillColor=#f5f5f5;strokeColor=#666666;gradientColor=#b3b3b3;" vertex="1" parent="1">
          <mxGeometry x="650" y="295" width="120" height="245" as="geometry" />
        </mxCell>
        <mxCell id="7t4Ecdm951KzAX5EodYJ-7" value="&lt;font style=&quot;font-size: 14px;&quot;&gt;S0&lt;/font&gt;&lt;div&gt;&lt;font style=&quot;font-size: 14px;&quot;&gt;from&lt;/font&gt;&lt;/div&gt;" style="rounded=0;whiteSpace=wrap;html=1;fillColor=#fad7ac;strokeColor=#b46504;" vertex="1" parent="1">
          <mxGeometry x="200" y="420" width="60" height="50" as="geometry" />
        </mxCell>
        <mxCell id="7t4Ecdm951KzAX5EodYJ-8" value="&lt;font style=&quot;font-size: 16px;&quot;&gt;s1&lt;/font&gt;&lt;div&gt;&lt;font style=&quot;font-size: 16px;&quot;&gt;to&lt;/font&gt;&lt;/div&gt;" style="rounded=0;whiteSpace=wrap;html=1;fillColor=#ffcccc;strokeColor=#36393d;" vertex="1" parent="1">
          <mxGeometry x="280" y="420" width="60" height="50" as="geometry" />
        </mxCell>
        <mxCell id="7t4Ecdm951KzAX5EodYJ-9" value="&lt;font style=&quot;font-size: 14px;&quot;&gt;新生代&lt;/font&gt;" style="text;html=1;align=center;verticalAlign=middle;whiteSpace=wrap;rounded=0;" vertex="1" parent="1">
          <mxGeometry x="220" y="480" width="90" height="30" as="geometry" />
        </mxCell>
        <mxCell id="7t4Ecdm951KzAX5EodYJ-10" value="&lt;font style=&quot;font-size: 16px;&quot;&gt;永久代&lt;/font&gt;" style="text;html=1;align=center;verticalAlign=middle;whiteSpace=wrap;rounded=0;" vertex="1" parent="1">
          <mxGeometry x="680" y="370" width="60" height="30" as="geometry" />
        </mxCell>
        <mxCell id="7t4Ecdm951KzAX5EodYJ-12" value="&lt;font style=&quot;font-size: 21px;&quot;&gt;堆&lt;/font&gt;" style="text;html=1;align=center;verticalAlign=middle;whiteSpace=wrap;rounded=0;" vertex="1" parent="1">
          <mxGeometry x="340" y="300" width="84" height="30" as="geometry" />
        </mxCell>
        <mxCell id="7t4Ecdm951KzAX5EodYJ-13" value="&lt;font style=&quot;font-size: 18px;&quot;&gt;jdk8&lt;/font&gt;" style="text;html=1;align=center;verticalAlign=middle;whiteSpace=wrap;rounded=0;" vertex="1" parent="1">
          <mxGeometry x="370" y="250" width="60" height="30" as="geometry" />
        </mxCell>
      </root>
    </mxGraphModel>
  </diagram>
</mxfile>
